<?xml version="1.0" encoding="utf-8"?>
<!-- Svg Vector Icons : http://www.onlinewebfonts.com/icon -->
<!DOCTYPE svg PUBLIC "-//W3C//DTD SVG 1.1//EN" "http://www.w3.org/Graphics/SVG/1.1/DTD/svg11.dtd">
<svg version="1.1" xmlns="http://www.w3.org/2000/svg" xmlns:xlink="http://www.w3.org/1999/xlink" x="0px" y="0px" viewBox="0 0 1000 1000" enable-background="new 0 0 1000 1000" xml:space="preserve">
<metadata> Svg Vector Icons : http://www.onlinewebfonts.com/icon </metadata>
<g><path d="M984,323.6L812.5,67.4c-6.4-9.5-17.2-15.2-28.7-15.2H216.2c-11.5,0-22.2,5.7-28.6,15.2L15.9,323.6c-8.3,12.3-7.8,28.6,1.2,40.4l455.4,570.3c6.6,8.5,16.7,13.5,27.5,13.5c10.8,0,20.9-5,27.5-13.5L982.8,364C991.9,352.2,992.4,335.9,984,323.6L984,323.6L984,323.6z M636.1,364.8L500,873.6L372.7,366L636.1,364.8L636.1,364.8L636.1,364.8z M371.3,322.2L500,101.3l136,220.9H371.3L371.3,322.2L371.3,322.2z M547.2,98.2h190l-71.7,191L547.2,98.2L547.2,98.2z M343,286.6L265.4,98.2h185.5L343,286.6L343,286.6L343,286.6z M450.9,838.1L73.6,366h249.4L450.9,838.1L450.9,838.1L450.9,838.1z M684.9,366h240.6L548,837.4L684.9,366L684.9,366L684.9,366z M929.2,322.2H696.6l84-219.8L929.2,322.2L929.2,322.2L929.2,322.2z M219.4,99.3l91.9,223H69.7L219.4,99.3L219.4,99.3L219.4,99.3z"/></g>
</svg>